<svg id="Layer_1" data-name="Layer 1" xmlns="http://www.w3.org/2000/svg" viewBox="0 0 640 54"><title>logo</title><path d="M74.19,36.19A16.66,16.66,0,0,1,57.55,52.85H16.63A16.66,16.66,0,0,1,0,36.19V16.66A16.66,16.66,0,0,1,16.63,0H57.55A16.66,16.66,0,0,1,74.19,16.66ZM60.42,39.06V13.79H13.77V39.06Z" style="fill:#ff9c00"/><path d="M165.67,0,130.49,47.2c-2.77,3.74-7,6.8-12,6.8s-9.18-3.06-12.05-6.8L71.31,0h17.5l29.73,40.79L148.17,0Z" style="fill:#ff9c00"/><path d="M237,52.85H179.43A16.65,16.65,0,0,1,162.8,36.19V16.66A16.65,16.65,0,0,1,179.43,0H237V13.79H176.56V39.06H237Zm0-19.53H181.15V19.53H237Z" style="fill:#ff9c00"/><path d="M317.28,52.85H303.51V39.06H261.45V25.28h42.06V13.79H256.86V52.85H243.09V0h57.55a16.66,16.66,0,0,1,16.64,16.66V22.4a12.43,12.43,0,0,1-4.78,9.77,12.43,12.43,0,0,1,4.78,9.77Z" style="fill:#ff9c00"/><path d="M397.58,52.85H340a16.66,16.66,0,0,1-16.64-16.66V16.66A16.66,16.66,0,0,1,340,0h57.55V13.79H337.16V39.06h60.42Z" style="fill:#ff9c00"/><path d="M462.58,52.85H418.79a16.66,16.66,0,0,1-16.63-16.66V0h13.77V39.06h46.65Z" style="fill:#ff9c00"/><path d="M480.93,52.85H467.16V0h13.77Z" style="fill:#ff9c00"/><path d="M561.23,22.4A16.65,16.65,0,0,1,544.6,39.06H505.4V25.28h42.07V13.79H500.81V52.85H487.05V0H544.6a16.65,16.65,0,0,1,16.63,16.66Z" style="fill:#ff9c00"/><path d="M623.37,52.85H565.81V39.06h60.42V33.32H580A16.66,16.66,0,0,1,580,0h57.55V13.79H577.1v5.74h46.27a16.66,16.66,0,0,1,0,33.32Z" style="fill:#ff9c00"/></svg>